<svg version="1.1" xmlns="http://www.w3.org/2000/svg" style="display: block;" viewBox="0 0 2048 1152" width="1820" height="1024">
<path transform="translate(0,0)" fill="rgb(254,254,255)" d="M 0 0 L 2046.25 0 C 2048.65 3.7775 2047.99 9.25049 2047.99 13.5932 L 2048 835.128 L 2048.01 1061.94 L 2048 1122.09 C 2047.99 1130.36 2049.11 1140.48 2047.72 1148.51 C 2047.5 1149.77 2046.93 1150.93 2046.25 1152 L 0 1152 L 0 0 z M 547.994 162.053 C 507.11 162.075 473.996 160.246 442.902 191.453 C 427.409 207.001 418.166 227.241 415.504 248.945 C 411.163 250.871 407.268 253.701 403.518 256.585 C 388.236 268.339 373.79 281.838 359.631 294.908 C 272.776 375.085 183.023 492.791 167.768 613.056 C 157.902 690.833 184.043 767.7 231.769 828.844 C 342.687 970.946 558.312 1041.44 728.382 1073.65 C 755.536 1078.8 783.093 1083.86 810.533 1087.23 C 895.277 1097.9 980.681 1102.43 1066.08 1100.8 C 1285.76 1095.4 1562.63 1041.1 1738.55 903.13 C 1807.39 849.144 1869.61 770.815 1880.3 681.611 C 1893.23 573.712 1835.22 467.304 1770.69 385.21 C 1737.26 342.675 1697.58 304.092 1656.21 269.352 C 1647.17 261.758 1632.62 247.271 1620.73 245.857 C 1620.9 245.274 1620.94 245.218 1621 244.512 C 1622.27 228.68 1606.82 203.017 1596.18 191.822 C 1565 159.047 1528.81 163.031 1487.55 162.026 L 1487.55 160.354 C 1482.86 155.063 1467.01 149.233 1459.88 145.847 C 1386.72 111.172 1309.37 86.1356 1229.77 71.3646 C 1038.72 35.3462 841.574 49.679 657.737 112.953 C 630.659 122.547 604.144 133.659 578.316 146.235 C 568.164 151.095 557.324 155.742 547.994 162.053 z M 1799.75 180.543 C 1761.93 186.724 1736.35 222.486 1742.72 260.275 C 1749.09 298.064 1784.98 323.466 1822.74 316.91 C 1860.23 310.4 1885.42 274.817 1879.09 237.292 C 1872.77 199.766 1837.31 174.404 1799.75 180.543 z M 278.657 957.095 C 248.855 961.396 228.11 988.943 232.209 1018.77 C 236.308 1048.61 263.714 1069.54 293.572 1065.64 C 323.718 1061.71 344.895 1033.98 340.757 1003.86 C 336.618 973.741 308.747 952.752 278.657 957.095 z"/>
<path transform="translate(0,0)" fill="rgb(231,236,254)" d="M 547.994 162.053 C 557.324 155.742 568.164 151.095 578.316 146.235 C 604.144 133.659 630.659 122.547 657.737 112.953 C 841.574 49.679 1038.72 35.3462 1229.77 71.3646 C 1309.37 86.1356 1386.72 111.172 1459.88 145.847 C 1467.01 149.233 1482.86 155.063 1487.55 160.354 L 1487.55 162.026 C 1478.85 163.211 1468.87 162.375 1460.06 162.398 L 1403.21 162.502 L 1206.17 162.471 L 547.994 162.053 z"/>
<path transform="translate(0,0)" fill="rgb(56,56,56)" d="M 415.504 248.945 C 418.166 227.241 427.409 207.001 442.902 191.453 C 473.996 160.246 507.11 162.075 547.994 162.053 L 1206.17 162.471 L 1403.21 162.502 L 1460.06 162.398 C 1468.87 162.375 1478.85 163.211 1487.55 162.026 C 1528.81 163.031 1565 159.047 1596.18 191.822 C 1606.82 203.017 1622.27 228.68 1621 244.512 C 1620.94 245.218 1620.9 245.274 1620.73 245.857 C 1626.02 260.509 1620.29 283.087 1613.85 296.858 C 1602.46 321.437 1581.75 340.467 1556.3 349.741 C 1546.05 353.363 1534.01 354.472 1523.2 354.795 C 1500.37 355.475 1477.36 354.908 1454.51 354.903 L 1324.42 354.847 L 939.64 354.803 L 655.443 354.794 L 562.752 354.794 C 545.619 354.796 528.167 355.445 511.066 354.466 C 496.883 353.758 482.995 350.15 470.26 343.866 C 446.82 332.399 428.857 312.138 420.282 287.492 C 416.209 275.444 414.143 261.638 415.504 248.945 z M 502.583 165.338 C 475.571 169.49 451.832 182.017 435.516 204.387 C 421.308 223.719 415.462 247.948 419.29 271.632 C 423.245 296.37 436.997 318.472 457.442 332.95 C 472.671 343.825 490.569 350.357 509.224 351.849 C 533.403 353.665 558.657 352.252 582.964 352.255 L 725.747 352.243 L 1176.62 352.204 L 1433.77 352.273 L 1498.78 352.45 C 1509.73 352.485 1522.64 353.604 1533.35 351.709 C 1533.71 351.644 1534.07 351.57 1534.43 351.501 C 1560.05 348.741 1583.46 335.723 1599.32 315.415 C 1614.93 295.582 1621.57 271.029 1618.56 245.99 C 1615.71 221.674 1603.2 199.524 1583.86 184.515 C 1570.81 174.265 1552.78 166.825 1536.22 165.405 C 1513.46 163.453 1489.42 164.915 1466.55 164.908 L 1333.67 164.889 L 908.651 164.844 L 624.732 164.898 L 544.181 164.747 C 530.936 164.711 516.151 163.511 503.036 165.262 C 502.884 165.282 502.734 165.313 502.583 165.338 z"/>
<path transform="translate(0,0)" fill="rgb(254,254,255)" d="M 1534.43 351.501 C 1534.07 351.57 1533.71 351.644 1533.35 351.709 C 1522.64 353.604 1509.73 352.485 1498.78 352.45 L 1433.77 352.273 L 1176.62 352.204 L 725.747 352.243 L 582.964 352.255 C 558.657 352.252 533.403 353.665 509.224 351.849 C 490.569 350.357 472.671 343.825 457.442 332.95 C 436.997 318.472 423.245 296.37 419.29 271.632 C 415.462 247.948 421.308 223.719 435.516 204.387 C 451.832 182.017 475.571 169.49 502.583 165.338 C 502.734 165.313 502.884 165.282 503.036 165.262 C 516.151 163.511 530.936 164.711 544.181 164.747 L 624.732 164.898 L 908.651 164.844 L 1333.67 164.889 L 1466.55 164.908 C 1489.42 164.915 1513.46 163.453 1536.22 165.405 C 1552.78 166.825 1570.81 174.265 1583.86 184.515 C 1603.2 199.524 1615.71 221.674 1618.56 245.99 C 1621.57 271.029 1614.93 295.582 1599.32 315.415 C 1583.46 335.723 1560.05 348.741 1534.43 351.501 z M 637.127 212.693 C 621.926 237.067 608.455 262.708 593.799 287.446 C 582.882 263.818 565.733 231.137 551.159 209.929 L 540.47 287.554 C 539.892 291.497 536.943 299.554 537.389 303.053 C 537.434 303.405 538.423 304.609 538.669 304.979 C 541.317 305.869 542.935 305.752 545.641 305.141 C 546.879 303.643 551.738 250.789 553.125 243.108 L 553.718 240.638 C 554.266 240.88 554.88 241.008 555.361 241.364 C 556.583 242.269 588.151 300.422 592.269 307.816 C 604.451 284.121 618.202 261.234 630.295 237.532 C 631.293 253.361 638.471 293.27 633.98 305.644 L 652.183 305.604 C 643.543 287.778 646.522 221.311 637.127 212.693 z M 1072.29 213.71 C 1062.4 235.5 1040.14 290.215 1026.75 305.589 C 1030.87 305.595 1036.81 306.362 1040.55 304.669 C 1040.51 304.414 1040.46 304.16 1040.44 303.904 C 1039.44 295.023 1048.13 282.485 1051.29 274.036 L 1073.5 274.065 L 1088.84 274.068 C 1093.32 284.356 1098.44 294.806 1101.22 305.698 C 1107.34 305.378 1113.35 305.18 1119.47 305.38 C 1105.8 290.475 1083.51 218.308 1072.29 213.71 z M 1376.66 214.498 C 1362.04 218.955 1350.09 224.949 1342.58 239.024 C 1336.71 249.9 1335.42 262.677 1339.02 274.504 C 1342.69 286.136 1351.48 295.977 1362.31 301.457 C 1375.34 308.05 1393.01 308.977 1406.82 304.322 C 1412.86 302.286 1420.02 298.666 1423.81 293.343 C 1424.35 290.33 1424.06 287.543 1423.79 284.527 L 1422.62 283.74 C 1414.49 292.675 1407.69 300.52 1394.64 301.108 C 1394.01 301.139 1393.38 301.157 1392.75 301.162 C 1383.48 301.973 1374.21 299.655 1366.95 293.677 C 1358.18 286.452 1353.1 275.194 1352.27 263.977 C 1351.4 252.369 1354.35 239.473 1362.19 230.585 C 1368.21 223.755 1376.66 220.119 1385.68 219.568 C 1394.68 219.018 1404.65 220.411 1411.48 226.737 C 1416.28 231.178 1419.94 237.913 1420.75 244.446 C 1422.84 238.909 1423.59 229.433 1421.31 223.853 C 1421.14 223.417 1420.8 222.925 1420.56 222.543 C 1412.59 214.874 1395.85 213.567 1385.1 213.854 C 1382.28 213.955 1379.46 214.17 1376.66 214.498 z M 669.898 215.129 C 671.426 217.638 672.891 220.107 673.378 223.043 C 675.244 234.307 675.485 289.613 673.063 299.815 C 672.599 301.769 671.757 303.63 670.881 305.428 L 689.108 305.361 C 688.134 303.323 687.322 301.254 687.036 298.997 C 685.584 287.529 685.262 227.381 688.534 218.057 C 688.879 217.075 689.238 216.114 689.657 215.16 L 669.898 215.129 z M 709.203 215.203 C 710.866 217.72 712.701 220.239 714.164 222.872 C 714.15 244.168 716.416 286.279 712.224 305.531 L 722.423 305.389 C 720.727 281.13 721.688 256.455 721.811 232.133 L 793.477 307.272 C 799.565 298.067 791.402 234.011 797.982 215.277 C 794.156 215.245 787.995 214.375 784.529 215.838 C 785.193 219.049 786.63 222.059 787.007 225.309 C 789.16 243.854 786.887 264.596 787.187 283.384 C 773.971 268.79 760.561 254.373 746.959 240.138 C 739.105 231.882 730.47 223.798 723.254 215.018 L 709.203 215.203 z M 847.358 215.547 C 837.004 215.766 826.647 215.812 816.292 215.685 C 818.2 218.365 820.314 221.039 822.02 223.847 C 822.138 241.96 824.966 290.238 820.19 305.372 C 839.33 305.356 857.998 306.765 876.963 303.47 C 890.489 298.904 901.922 292.16 908.416 278.802 C 913.779 267.769 914.593 254.085 910.387 242.532 C 906.648 232.263 899.152 224.695 889.198 220.297 C 875.809 214.381 861.615 214.92 847.358 215.547 z M 957.367 215.457 C 959.484 217.67 961.628 219.881 962.505 222.885 C 966.393 236.199 964.317 274.634 963.926 290.367 C 963.796 295.603 963.12 300.319 961.635 305.359 C 981.531 305.31 1002.07 306.321 1021.88 304.765 L 1022.01 293.75 L 1021.88 289.612 L 1020.92 289.167 C 1017.97 293.322 1015.38 298.189 1009.91 299.044 C 999.392 300.687 987.703 298.964 977.042 299.081 L 977.04 215.671 C 970.493 215.607 963.91 215.679 957.367 215.457 z M 1113.86 215.116 L 1113.86 237.286 C 1115.74 231.67 1116.78 225.96 1122.5 222.96 C 1129.91 219.071 1141.36 221.191 1149.62 220.945 C 1149.74 239.733 1152.86 291.022 1146.9 305.85 L 1165.19 305.789 C 1165.38 304.578 1161.89 280.495 1161.27 279.5 C 1164.55 274.277 1164.36 231.768 1162.93 224.532 C 1162.7 223.344 1162.17 222.248 1161.53 221.231 C 1170.48 221.075 1183.63 219.076 1191.41 223.881 C 1193 226.131 1193.8 230.303 1195.83 231.795 C 1196.3 226.799 1197 220.156 1194.6 215.643 C 1194.52 215.486 1194.44 215.325 1194.36 215.166 C 1167.53 215.33 1140.69 215.313 1113.86 215.116 z M 1204.12 215.488 L 1204.28 216.254 C 1205.21 221.175 1205.2 226.676 1205.59 231.657 C 1205.61 231.977 1205.54 232.296 1205.51 232.615 C 1207.32 228.217 1207.21 224.768 1212.09 222.649 C 1219.02 219.642 1229.67 221.029 1237.07 221.136 C 1240.19 226.436 1239.76 293.436 1237.48 301.663 C 1237.08 303.097 1236.58 304.448 1235.91 305.776 C 1241.04 305.822 1249.36 307.01 1254.02 305.119 C 1253.48 302.084 1252.58 298.93 1252.25 295.896 C 1251.6 289.969 1253.51 282.804 1250.33 277.478 C 1253.68 272.197 1253.18 231.906 1251.85 224.532 C 1251.63 223.295 1251.07 222.157 1250.41 221.1 C 1258.21 220.973 1274.05 218.888 1280.23 223.983 C 1282.49 225.85 1282.26 230.825 1284.71 231.706 C 1285 227.636 1286.4 218.774 1284.53 215.249 L 1233.54 215.073 C 1223.93 215.03 1213.67 214.329 1204.12 215.488 z M 1299.23 215.499 C 1300.63 217.308 1302.09 219.181 1302.59 221.459 C 1304.77 231.429 1304.14 286.023 1302.6 297.469 C 1302.19 300.581 1301.55 303.373 1299.44 305.816 C 1303.74 305.931 1315.02 307.283 1318.19 304.94 L 1317.22 303.055 C 1316.66 285.314 1316.58 267.649 1316.58 249.897 C 1316.57 241.993 1316.01 233.765 1316.59 225.907 C 1316.87 222.029 1320.45 218.459 1320.56 215.364 C 1313.47 215.403 1306.32 215.251 1299.23 215.499 z M 1439.2 215.498 C 1443.23 218.754 1444 221.575 1444.49 226.614 C 1445.86 240.748 1446.8 289.487 1443.23 301.722 C 1442.94 302.718 1442.71 303.742 1442.45 304.749 C 1445.96 307.608 1489.13 305.926 1496.78 305.874 C 1500.6 301.069 1501.45 295.137 1500.74 289.155 C 1500.72 288.966 1500.69 288.778 1500.67 288.59 C 1499.97 292.038 1498.86 294.883 1495.87 296.98 C 1487.11 303.121 1466.97 300.517 1456.51 300.399 C 1459.84 295.076 1459.31 276.461 1457.86 270.25 C 1457.64 269.292 1457.18 268.351 1456.72 267.488 C 1458.54 264.862 1458.73 264.209 1462.03 263.629 C 1472.32 261.821 1482.7 264.316 1492.44 267.499 C 1493.6 263.391 1492.96 257.862 1492.16 253.715 C 1485.23 260.416 1472.65 258.57 1463.7 258.419 C 1461.41 258.38 1459.12 258.326 1456.83 258.357 C 1460.03 252.691 1459.44 231.069 1457.82 224.287 C 1457.59 223.35 1457.12 222.475 1456.67 221.632 C 1456.59 221.474 1456.51 221.313 1456.43 221.154 C 1465.8 220.956 1488.1 217.996 1494.61 224.768 C 1496.54 226.776 1497.47 230.284 1497.19 232.992 C 1497.17 233.163 1497.15 233.332 1497.12 233.501 C 1498.48 227.733 1500.41 220.665 1497.14 215.181 C 1478.32 215.118 1457.83 213.391 1439.2 215.498 z"/>
<path transform="translate(0,0)" fill="rgb(231,236,254)" d="M 1822.74 316.91 C 1784.98 323.466 1749.09 298.064 1742.72 260.275 C 1736.35 222.486 1761.93 186.724 1799.75 180.543 C 1837.31 174.404 1872.77 199.766 1879.09 237.292 C 1885.42 274.817 1860.23 310.4 1822.74 316.91 z"/>
<path transform="translate(0,0)" fill="rgb(5,5,4)" d="M 593.799 287.446 C 608.455 262.708 621.926 237.067 637.127 212.693 C 646.522 221.311 643.543 287.778 652.183 305.604 L 633.98 305.644 C 638.471 293.27 631.293 253.361 630.295 237.532 C 618.202 261.234 604.451 284.121 592.269 307.816 C 588.151 300.422 556.583 242.269 555.361 241.364 C 554.88 241.008 554.266 240.88 553.718 240.638 L 553.125 243.108 C 551.738 250.789 546.879 303.643 545.641 305.141 C 542.935 305.752 541.317 305.869 538.669 304.979 C 538.423 304.609 537.434 303.405 537.389 303.053 C 536.943 299.554 539.892 291.497 540.47 287.554 L 551.159 209.929 C 565.733 231.137 582.882 263.818 593.799 287.446 z"/>
<path transform="translate(0,0)" fill="rgb(5,5,4)" d="M 1026.75 305.589 C 1040.14 290.215 1062.4 235.5 1072.29 213.71 C 1083.51 218.308 1105.8 290.475 1119.47 305.38 C 1113.35 305.18 1107.34 305.378 1101.22 305.698 C 1098.44 294.806 1093.32 284.356 1088.84 274.068 L 1073.5 274.065 L 1051.29 274.036 C 1048.13 282.485 1039.44 295.023 1040.44 303.904 C 1040.46 304.16 1040.51 304.414 1040.55 304.669 C 1036.81 306.362 1030.87 305.595 1026.75 305.589 z M 1070.08 232.551 C 1064.42 244.45 1058.97 256.45 1053.73 268.546 L 1070.5 268.64 L 1086.32 268.56 C 1082.6 259.87 1075.59 239.013 1070.08 232.551 z"/>
<path transform="translate(0,0)" fill="rgb(5,5,4)" d="M 1392.75 301.162 C 1393.38 301.157 1394.01 301.139 1394.64 301.108 C 1407.69 300.52 1414.49 292.675 1422.62 283.74 L 1423.79 284.527 C 1424.06 287.543 1424.35 290.33 1423.81 293.343 C 1420.02 298.666 1412.86 302.286 1406.82 304.322 C 1393.01 308.977 1375.34 308.05 1362.31 301.457 C 1351.48 295.977 1342.69 286.136 1339.02 274.504 C 1335.42 262.677 1336.71 249.9 1342.58 239.024 C 1350.09 224.949 1362.04 218.955 1376.66 214.498 C 1379.46 214.17 1382.28 213.955 1385.1 213.854 C 1395.85 213.567 1412.59 214.874 1420.56 222.543 C 1420.8 222.925 1421.14 223.417 1421.31 223.853 C 1423.59 229.433 1422.84 238.909 1420.75 244.446 C 1419.94 237.913 1416.28 231.178 1411.48 226.737 C 1404.65 220.411 1394.68 219.018 1385.68 219.568 C 1376.66 220.119 1368.21 223.755 1362.19 230.585 C 1354.35 239.473 1351.4 252.369 1352.27 263.977 C 1353.1 275.194 1358.18 286.452 1366.95 293.677 C 1374.21 299.655 1383.48 301.973 1392.75 301.162 z"/>
<path transform="translate(0,0)" fill="rgb(5,5,4)" d="M 670.881 305.428 C 671.757 303.63 672.599 301.769 673.063 299.815 C 675.485 289.613 675.244 234.307 673.378 223.043 C 672.891 220.107 671.426 217.638 669.898 215.129 L 689.657 215.16 C 689.238 216.114 688.879 217.075 688.534 218.057 C 685.262 227.381 685.584 287.529 687.036 298.997 C 687.322 301.254 688.134 303.323 689.108 305.361 L 670.881 305.428 z"/>
<path transform="translate(0,0)" fill="rgb(5,5,4)" d="M 714.164 222.872 C 712.701 220.239 710.866 217.72 709.203 215.203 L 723.254 215.018 C 730.47 223.798 739.105 231.882 746.959 240.138 C 760.561 254.373 773.971 268.79 787.187 283.384 C 786.887 264.596 789.16 243.854 787.007 225.309 C 786.63 222.059 785.193 219.049 784.529 215.838 C 787.995 214.375 794.156 215.245 797.982 215.277 C 791.402 234.011 799.565 298.067 793.477 307.272 L 721.811 232.133 C 721.688 256.455 720.727 281.13 722.423 305.389 L 712.224 305.531 C 716.416 286.279 714.15 244.168 714.164 222.872 z"/>
<path transform="translate(0,0)" fill="rgb(5,5,4)" d="M 816.292 215.685 C 826.647 215.812 837.004 215.766 847.358 215.547 C 861.615 214.92 875.809 214.381 889.198 220.297 C 899.152 224.695 906.648 232.263 910.387 242.532 C 914.593 254.085 913.779 267.769 908.416 278.802 C 901.922 292.16 890.489 298.904 876.963 303.47 C 857.998 306.765 839.33 305.356 820.19 305.372 C 824.966 290.238 822.138 241.96 822.02 223.847 C 820.314 221.039 818.2 218.365 816.292 215.685 z M 839.822 221.359 L 836.835 222.593 C 833.679 230.99 835.74 285.873 835.785 298.551 C 852.491 301.741 869.678 300.846 884.333 291.488 C 893.553 282.933 897.827 273.121 898.226 260.492 C 898.551 250.195 895.892 239.723 888.657 232.102 C 880.498 223.509 868.699 220.891 857.244 220.794 C 851.473 220.744 845.58 220.938 839.822 221.359 z"/>
<path transform="translate(0,0)" fill="rgb(5,5,4)" d="M 961.635 305.359 C 963.12 300.319 963.796 295.603 963.926 290.367 C 964.317 274.634 966.393 236.199 962.505 222.885 C 961.628 219.881 959.484 217.67 957.367 215.457 C 963.91 215.679 970.493 215.607 977.04 215.671 L 977.042 299.081 C 987.703 298.964 999.392 300.687 1009.91 299.044 C 1015.38 298.189 1017.97 293.322 1020.92 289.167 L 1021.88 289.612 L 1022.01 293.75 L 1021.88 304.765 C 1002.07 306.321 981.531 305.31 961.635 305.359 z"/>
<path transform="translate(0,0)" fill="rgb(5,5,4)" d="M 1113.86 237.286 L 1113.86 215.116 C 1140.69 215.313 1167.53 215.33 1194.36 215.166 C 1194.44 215.325 1194.52 215.486 1194.6 215.643 C 1197 220.156 1196.3 226.799 1195.83 231.795 C 1193.8 230.303 1193 226.131 1191.41 223.881 C 1183.63 219.076 1170.48 221.075 1161.53 221.231 C 1162.17 222.248 1162.7 223.344 1162.93 224.532 C 1164.36 231.768 1164.55 274.277 1161.27 279.5 C 1161.89 280.495 1165.38 304.578 1165.19 305.789 L 1146.9 305.85 C 1152.86 291.022 1149.74 239.733 1149.62 220.945 C 1141.36 221.191 1129.91 219.071 1122.5 222.96 C 1116.78 225.96 1115.74 231.67 1113.86 237.286 z"/>
<path transform="translate(0,0)" fill="rgb(5,5,4)" d="M 1237.07 221.136 C 1229.67 221.029 1219.02 219.642 1212.09 222.649 C 1207.21 224.768 1207.32 228.217 1205.51 232.615 C 1205.54 232.296 1205.61 231.977 1205.59 231.657 C 1205.2 226.676 1205.21 221.175 1204.28 216.254 L 1204.12 215.488 C 1213.67 214.329 1223.93 215.03 1233.54 215.073 L 1284.53 215.249 C 1286.4 218.774 1285 227.636 1284.71 231.706 C 1282.26 230.825 1282.49 225.85 1280.23 223.983 C 1274.05 218.888 1258.21 220.973 1250.41 221.1 C 1251.07 222.157 1251.63 223.295 1251.85 224.532 C 1253.18 231.906 1253.68 272.197 1250.33 277.478 C 1253.51 282.804 1251.6 289.969 1252.25 295.896 C 1252.58 298.93 1253.48 302.084 1254.02 305.119 C 1249.36 307.01 1241.04 305.822 1235.91 305.776 C 1236.58 304.448 1237.08 303.097 1237.48 301.663 C 1239.76 293.436 1240.19 226.436 1237.07 221.136 z"/>
<path transform="translate(0,0)" fill="rgb(5,5,4)" d="M 1299.44 305.816 C 1301.55 303.373 1302.19 300.581 1302.6 297.469 C 1304.14 286.023 1304.77 231.429 1302.59 221.459 C 1302.09 219.181 1300.63 217.308 1299.23 215.499 C 1306.32 215.251 1313.47 215.403 1320.56 215.364 C 1320.45 218.459 1316.87 222.029 1316.59 225.907 C 1316.01 233.765 1316.57 241.993 1316.58 249.897 C 1316.58 267.649 1316.66 285.314 1317.22 303.055 L 1318.19 304.94 C 1315.02 307.283 1303.74 305.931 1299.44 305.816 z"/>
<path transform="translate(0,0)" fill="rgb(5,5,4)" d="M 1496.78 305.874 C 1489.13 305.926 1445.96 307.608 1442.45 304.749 C 1442.71 303.742 1442.94 302.718 1443.23 301.722 C 1446.8 289.487 1445.86 240.748 1444.49 226.614 C 1444 221.575 1443.23 218.754 1439.2 215.498 C 1457.83 213.391 1478.32 215.118 1497.14 215.181 C 1500.41 220.665 1498.48 227.733 1497.12 233.501 C 1497.15 233.332 1497.17 233.163 1497.19 232.992 C 1497.47 230.284 1496.54 226.776 1494.61 224.768 C 1488.1 217.996 1465.8 220.956 1456.43 221.154 C 1456.51 221.313 1456.59 221.474 1456.67 221.632 C 1457.12 222.475 1457.59 223.35 1457.82 224.287 C 1459.44 231.069 1460.03 252.691 1456.83 258.357 C 1459.12 258.326 1461.41 258.38 1463.7 258.419 C 1472.65 258.57 1485.23 260.416 1492.16 253.715 C 1492.96 257.862 1493.6 263.391 1492.44 267.499 C 1482.7 264.316 1472.32 261.821 1462.03 263.629 C 1458.73 264.209 1458.54 264.862 1456.72 267.488 C 1457.18 268.351 1457.64 269.292 1457.86 270.25 C 1459.31 276.461 1459.84 295.076 1456.51 300.399 C 1466.97 300.517 1487.11 303.121 1495.87 296.98 C 1498.86 294.883 1499.97 292.038 1500.67 288.59 C 1500.69 288.778 1500.72 288.966 1500.74 289.155 C 1501.45 295.137 1500.6 301.069 1496.78 305.874 z"/>
<path transform="translate(0,0)" fill="rgb(254,254,255)" d="M 835.785 298.551 C 835.74 285.873 833.679 230.99 836.835 222.593 L 839.822 221.359 C 845.58 220.938 851.473 220.744 857.244 220.794 C 868.699 220.891 880.498 223.509 888.657 232.102 C 895.892 239.723 898.551 250.195 898.226 260.492 C 897.827 273.121 893.553 282.933 884.333 291.488 C 869.678 300.846 852.491 301.741 835.785 298.551 z"/>
<path transform="translate(0,0)" fill="rgb(254,254,255)" d="M 1053.73 268.546 C 1058.97 256.45 1064.42 244.45 1070.08 232.551 C 1075.59 239.013 1082.6 259.87 1086.32 268.56 L 1070.5 268.64 L 1053.73 268.546 z"/>
<path transform="translate(0,0)" fill="rgb(231,236,254)" d="M 1620.73 245.857 C 1632.62 247.271 1647.17 261.758 1656.21 269.352 C 1697.58 304.092 1737.26 342.675 1770.69 385.21 C 1835.22 467.304 1893.23 573.712 1880.3 681.611 C 1869.61 770.815 1807.39 849.144 1738.55 903.13 C 1562.63 1041.1 1285.76 1095.4 1066.08 1100.8 C 980.681 1102.43 895.277 1097.9 810.533 1087.23 C 783.093 1083.86 755.536 1078.8 728.382 1073.65 C 558.312 1041.44 342.687 970.946 231.769 828.844 C 184.043 767.7 157.902 690.833 167.768 613.056 C 183.023 492.791 272.776 375.085 359.631 294.908 C 373.79 281.838 388.236 268.339 403.518 256.585 C 407.268 253.701 411.163 250.871 415.504 248.945 C 414.143 261.638 416.209 275.444 420.282 287.492 C 428.857 312.138 446.82 332.399 470.26 343.866 C 482.995 350.15 496.883 353.758 511.066 354.466 C 528.167 355.445 545.619 354.796 562.752 354.794 L 655.443 354.794 L 939.64 354.803 L 1324.42 354.847 L 1454.51 354.903 C 1477.36 354.908 1500.37 355.475 1523.2 354.795 C 1534.01 354.472 1546.05 353.363 1556.3 349.741 C 1581.75 340.467 1602.46 321.437 1613.85 296.858 C 1620.29 283.087 1626.02 260.509 1620.73 245.857 z M 1007.32 511.556 C 997.607 505.922 988.498 506.237 977.806 509.078 C 948.043 516.987 905.041 545.385 889.578 572.552 C 883.493 583.243 881.15 593.592 882.124 605.786 C 819.514 606.959 756.691 605.871 694.06 605.898 C 694.061 636.35 693.706 666.861 694.425 697.303 C 681.086 700.22 668.533 704.183 660.648 716.295 C 657.712 720.869 655.706 725.975 654.744 731.324 L 653.963 735.979 C 648.786 739.613 562.642 735.21 546.966 737.455 C 546.748 736.326 546.513 735.201 546.261 734.079 C 542.94 719.261 536.856 709.979 523.724 701.858 C 507.009 691.521 485.959 689.193 466.989 693.613 C 453.477 696.762 439.069 703.89 431.511 715.996 C 425.088 724.75 422.048 734.642 423.699 745.516 C 425.435 756.943 432.594 767.516 441.989 774.138 C 442.782 774.698 443.605 775.202 444.447 775.684 C 455.573 785.792 474.133 788.806 488.723 788.124 C 505.835 787.324 523.586 780.583 535.206 767.661 C 542.28 759.794 545.58 751.203 546.602 740.79 L 654.327 740.677 C 656.424 751.898 661.147 760.7 670.825 767.18 C 677.85 771.884 685.798 774.119 694.09 775.272 L 694.022 862.229 C 756.744 861.907 819.468 861.907 882.19 862.231 C 890.766 895.885 919.531 917.994 948.145 935.052 C 962.568 943.651 980.138 952.442 997.337 948.04 C 1007.24 945.504 1015.14 938.805 1020.14 930 C 1021.16 928.199 1022.04 926.323 1022.89 924.434 C 1024.7 927.625 1026.4 931.162 1028.56 934.111 C 1029.54 936.277 1031.69 938.498 1033.37 940.158 C 1040.28 946.986 1048.49 949.407 1058.09 949.339 C 1080.99 949.178 1117.65 925.598 1133.37 909.882 C 1142.37 902.393 1150.78 892.5 1156.82 882.455 C 1159.75 877.582 1164.44 869.018 1162.98 863.152 L 1350.28 863.152 C 1350.38 862.977 1350.5 862.806 1350.59 862.626 C 1353.49 857.31 1352.85 783.928 1351 776.743 C 1352.25 776.637 1353.49 776.511 1354.73 776.364 C 1366.12 774.99 1377.81 769.02 1384.86 759.821 C 1388.52 755.05 1391.81 746.991 1390.96 740.957 L 1497.29 741.005 C 1499.85 744.133 1500.91 749.874 1500.87 753.865 C 1508.63 765.467 1515.27 773.027 1527.57 780.077 C 1546.67 788.356 1568.08 789.642 1588.04 783.709 C 1593.03 782.171 1601.44 778.825 1603.91 774.054 C 1604.26 773.944 1604.62 773.846 1604.96 773.725 C 1611.86 771.325 1618.2 761.869 1620.93 755.462 C 1625.03 745.892 1625.69 733.911 1621.73 724.177 C 1619.84 719.512 1616.59 714.045 1611.82 711.971 C 1610.77 707.634 1605.2 703.88 1601.54 701.541 C 1585.56 691.315 1562.39 688.798 1544.16 692.84 C 1526.07 696.855 1510.71 705.826 1502.89 723.202 C 1500.86 727.696 1500.19 732.711 1497.43 736.829 C 1497.3 737.02 1497.17 737.205 1497.03 737.393 L 1390.48 737.128 C 1391.01 736.052 1391.36 734.827 1391.43 733.627 C 1391.89 726.059 1387.62 718.114 1382.74 712.639 C 1375.51 704.518 1365.83 698.779 1354.87 698.11 C 1353.75 697.684 1352.9 697.178 1352.4 695.962 C 1351 692.544 1351.95 684.883 1351.97 680.972 C 1352.01 670.355 1353.77 615.121 1351.78 609.597 C 1351.47 608.749 1350.6 607.697 1350.11 606.905 C 1345.42 604.704 1182.4 606.098 1162.05 606.105 C 1164.2 602.387 1163.88 598.531 1163.53 594.407 C 1161.86 575.104 1147.52 557.868 1133.31 545.729 C 1118.73 532.183 1099.84 520.329 1081.44 512.766 C 1069.48 507.85 1055.97 504.621 1043.57 509.97 C 1033.27 514.41 1027.29 523.075 1023.27 533.175 C 1019.45 524.081 1015.42 517.364 1007.32 511.556 z M 1403.28 534.873 C 1392.38 537.66 1382.35 542.304 1376.35 552.299 C 1371.8 559.906 1370.45 569.01 1372.6 577.611 C 1375.01 587.197 1381.61 595.074 1390.05 600.041 C 1402.28 607.244 1416.49 607.737 1429.97 604.258 C 1433.36 603.382 1436.47 602.216 1439.27 600.068 L 1439.79 599.019 C 1442.79 598.271 1445.13 596.518 1447.37 594.456 C 1453.95 588.399 1458.77 579.756 1458.97 570.663 C 1459.06 566.03 1458.24 562.045 1455.01 558.596 C 1455.43 556.235 1454.65 554.736 1453.45 552.708 C 1450.66 547.965 1445.23 542.492 1439.85 541.005 C 1439.8 540.933 1439.75 540.857 1439.69 540.79 C 1436.67 537.288 1431.37 536.486 1427.03 535.859 C 1421.01 532.087 1409.92 533.698 1403.28 534.873 z M 617.225 535.478 C 607.316 538.19 597.463 543.716 592.177 552.854 C 587.874 560.294 586.891 569.621 589.214 577.862 C 592.06 587.955 599.523 595.941 608.602 600.894 C 619.501 606.841 633.524 608.519 645.461 604.96 C 656.222 601.635 665.22 594.167 670.471 584.202 C 674.246 576.925 674.974 568.447 672.495 560.633 C 669.429 550.817 662.213 543.68 653.391 538.823 C 653.136 538.698 652.882 538.571 652.626 538.449 C 641.55 533.181 628.939 531.249 617.225 535.478 z M 667.031 921.836 C 672.323 914.709 675.711 906.909 675.281 897.87 C 674.842 888.662 670.107 880.459 663.347 874.385 C 653.668 865.69 640.503 861.467 627.587 862.238 C 615.767 862.943 604.829 867.326 596.842 876.236 C 590.445 883.515 586.318 892.588 586.948 902.484 C 587.222 906.786 589.056 913.971 592.357 916.991 C 597.789 926.475 606.656 932.526 617.127 935.355 C 630.181 938.881 644.63 937.585 656.371 930.672 C 660.416 928.29 663.77 925.177 667.031 921.836 z M 1451.55 883.131 C 1451.39 879.879 1448.92 877.49 1446.62 875.378 C 1437.29 866.803 1421.34 862.574 1408.89 863.456 C 1398.71 864.177 1385.99 871.345 1379.6 879.018 C 1373.94 885.812 1371 894.315 1371.91 903.169 C 1372.88 912.722 1378.17 921.474 1385.64 927.395 C 1396.09 935.68 1409.47 938.107 1422.49 936.463 C 1428.03 935.764 1433.69 934.349 1438.29 931.068 L 1438.86 930.021 C 1443.57 928.853 1447.79 924.702 1450.7 920.942 C 1455.94 914.15 1459.03 904.794 1457.94 896.201 C 1457.29 891.122 1455.7 886.351 1451.55 883.131 z"/>
<path transform="translate(0,0)" fill="rgb(76,72,76)" d="M 882.124 605.786 C 881.15 593.592 883.493 583.243 889.578 572.552 C 905.041 545.385 948.043 516.987 977.806 509.078 C 988.498 506.237 997.607 505.922 1007.32 511.556 C 1015.42 517.364 1019.45 524.081 1023.27 533.175 C 1027.29 523.075 1033.27 514.41 1043.57 509.97 C 1055.97 504.621 1069.48 507.85 1081.44 512.766 C 1099.84 520.329 1118.73 532.183 1133.31 545.729 L 1132.23 550.766 C 1114.4 535.635 1091.81 519.114 1068.82 513.27 C 1059.71 510.955 1049.86 510.973 1041.63 516.003 C 1031.54 522.172 1027.82 532.885 1025.1 543.746 C 1025.03 543.594 1024.94 543.444 1024.87 543.288 C 1023.83 541.012 1024.24 539.305 1024.72 536.93 L 1023.9 535.588 L 1021.7 535.621 C 1021.85 539.53 1022.23 543.308 1020.86 547.048 C 1019.12 532.997 1015.26 523.726 1003.81 514.768 C 988.731 509.336 974.409 514.152 960.513 520.677 C 936.963 531.737 898.512 557.479 889.591 583.124 C 886.429 592.213 886.443 601.752 887.432 611.207 C 888.162 613.794 888.634 616.203 887.281 618.692 C 884.217 624.326 875.254 629.935 870.375 634.394 C 850.849 652.238 839.34 679.507 845.552 706.019 C 847.441 714.082 850.857 720.966 855.098 728.007 C 844.82 747.887 840.29 766.876 847.332 788.979 C 850.581 799.177 855.928 807.949 862.431 816.374 C 863.605 823.596 873.791 826.391 875.045 832.897 L 873.766 834.058 C 856.043 820.95 842.965 800.815 839.657 778.893 C 837.726 765.938 839.013 752.707 843.404 740.367 C 808.372 740.434 773.313 740.728 738.283 740.371 C 735.312 752.337 730.466 762.227 719.441 768.722 C 712.94 772.553 705.595 774.411 698.152 775.269 L 698.095 858.486 L 813.352 858.28 C 836.035 858.3 858.901 857.843 881.558 858.73 L 882.19 862.231 C 819.468 861.907 756.744 861.907 694.022 862.229 L 694.09 775.272 C 685.798 774.119 677.85 771.884 670.825 767.18 C 661.147 760.7 656.424 751.898 654.327 740.677 L 546.602 740.79 C 545.58 751.203 542.28 759.794 535.206 767.661 C 523.586 780.583 505.835 787.324 488.723 788.124 C 474.133 788.806 455.573 785.792 444.447 775.684 C 443.605 775.202 442.782 774.698 441.989 774.138 C 432.594 767.516 425.435 756.943 423.699 745.516 C 422.048 734.642 425.088 724.75 431.511 715.996 C 439.069 703.89 453.477 696.762 466.989 693.613 C 485.959 689.193 507.009 691.521 523.724 701.858 C 536.856 709.979 542.94 719.261 546.261 734.079 C 546.513 735.201 546.748 736.326 546.966 737.455 C 548.186 738.582 548.603 739.073 550.296 739.362 C 558.43 740.752 568.447 739.774 576.763 739.766 L 635.608 739.625 C 641.313 739.6 648.248 738.598 653.776 739.703 C 655.717 741.492 656.405 742.964 657.244 745.39 C 657.337 745.659 657.424 745.929 657.513 746.198 C 658.606 744.243 657.216 741.575 656.632 739.429 C 657.995 736.377 658.285 730.109 657.938 726.737 L 656.396 728.405 L 657.106 727.27 C 656.562 728.856 655.722 729.993 654.744 731.324 C 655.706 725.975 657.712 720.869 660.648 716.295 C 668.533 704.183 681.086 700.22 694.425 697.303 C 693.706 666.861 694.061 636.35 694.06 605.898 C 756.691 605.871 819.514 606.959 882.124 605.786 z M 880.328 609.761 C 819.783 611.697 758.713 609.866 698.098 610.058 C 698.275 639.22 698.273 668.382 698.091 697.544 C 707.853 699.645 716.76 701.526 724.738 708.077 C 733.896 715.596 737.292 725.394 738.339 736.858 L 844.704 736.869 L 849.501 727.888 C 830.379 695.905 839.116 658.903 863.997 633.145 C 869.014 627.951 882.256 621.107 883.531 614.065 C 882.679 611.401 882.662 611.281 880.328 609.761 z M 446.957 771.973 C 457.671 779.137 470.225 783.053 483.11 783.251 C 499.818 783.587 518.059 777.766 530.098 765.839 C 537.341 758.663 541.765 749.135 541.602 738.85 C 541.439 728.62 536.523 719.186 529.183 712.228 C 517.386 701.045 499.686 695.586 483.628 696.108 C 464.265 696.736 447.661 705.053 434.653 719.072 C 429.348 728.709 426.254 738.102 429.534 749.084 C 432.337 758.472 439.245 766.194 446.957 771.973 z M 691.885 702.218 C 680.766 704.443 671.077 708.866 664.547 718.549 C 659.554 725.861 657.755 734.891 659.564 743.558 C 661.48 752.512 667.302 760.055 675.01 764.857 C 682.633 769.605 691.885 771.501 700.786 770.789 C 711.831 768.703 721.662 764.285 728.147 754.691 C 733.059 747.433 734.801 738.485 732.972 729.914 C 731.051 720.82 725.225 713.076 717.383 708.188 C 709.782 703.451 700.767 701.648 691.885 702.218 z"/>
<path transform="translate(0,0)" fill="rgb(253,122,63)" d="M 887.432 611.207 C 886.443 601.752 886.429 592.213 889.591 583.124 C 898.512 557.479 936.963 531.737 960.513 520.677 C 974.409 514.152 988.731 509.336 1003.81 514.768 C 1015.26 523.726 1019.12 532.997 1020.86 547.048 C 1020.32 576.858 1020.71 606.732 1020.73 636.551 C 1020.74 661.533 1020.27 686.619 1021.01 711.581 C 1020.14 728.486 1020.68 745.607 1020.65 762.535 C 1020.58 813.871 1022.22 865.69 1020.09 916.944 C 1017.75 926.325 1012.78 934.916 1004.3 939.979 C 995.995 944.938 986.239 945.41 977.033 943.013 C 949.547 935.855 907.626 903.998 893.378 878.998 C 886.138 866.294 885.579 854.399 889.283 840.516 C 879.727 833.063 870.673 825.277 862.431 816.374 C 855.928 807.949 850.581 799.177 847.332 788.979 C 840.29 766.876 844.82 747.887 855.098 728.007 C 850.857 720.966 847.441 714.082 845.552 706.019 C 839.34 679.507 850.849 652.238 870.375 634.394 C 875.254 629.935 884.217 624.326 887.281 618.692 C 888.634 616.203 888.162 613.794 887.432 611.207 z"/>
<path transform="translate(0,0)" fill="rgb(61,97,254)" d="M 1025.1 543.746 C 1027.82 532.885 1031.54 522.172 1041.63 516.003 C 1049.86 510.973 1059.71 510.955 1068.82 513.27 C 1091.81 519.114 1114.4 535.635 1132.23 550.766 C 1146.97 565.488 1159 579.553 1158.98 601.676 C 1158.97 607.359 1158.16 613.264 1158.8 618.907 C 1179.63 635.3 1198.39 652.065 1201.63 680.147 C 1202.66 689.087 1202.71 703.643 1197.22 711.337 C 1196.81 711.923 1196.31 712.426 1195.78 712.91 C 1195.75 717.733 1191.66 722.572 1188.69 726.104 C 1196.95 734.259 1199.21 754.006 1199.3 765.285 C 1199.41 777.553 1197.03 795.907 1188.69 805.18 C 1187.41 815.389 1172.87 828.091 1164.94 834.283 C 1161.84 836.703 1158.61 839.043 1155.07 840.778 C 1159.48 846.905 1160.86 854.946 1159.61 862.327 C 1156.96 878.02 1143.58 895.004 1131.65 905.208 C 1113 920.799 1080.02 946.926 1054.18 944.523 C 1043.2 943.502 1037.48 938.093 1030.72 929.868 C 1028.52 925.404 1027.07 921.046 1025.74 916.256 C 1023.99 857.769 1026.68 799.126 1025 740.638 C 1026.85 726.396 1025.17 698.199 1025.33 682.339 C 1025.78 636.407 1027.52 589.604 1025.1 543.746 z"/>
<path transform="translate(0,0)" fill="rgb(68,69,81)" d="M 653.391 538.823 C 662.213 543.68 669.429 550.817 672.495 560.633 C 674.974 568.447 674.246 576.925 670.471 584.202 C 665.22 594.167 656.222 601.635 645.461 604.96 C 633.524 608.519 619.501 606.841 608.602 600.894 C 599.523 595.941 592.06 587.955 589.214 577.862 C 586.891 569.621 587.874 560.294 592.177 552.854 C 597.463 543.716 607.316 538.19 617.225 535.478 C 628.939 531.249 641.55 533.181 652.626 538.449 C 652.882 538.571 653.136 538.698 653.391 538.823 z M 653.962 544.311 C 643.332 539.126 635.211 537.653 623.548 538.028 C 613.327 540.907 602.968 544.908 597.495 554.677 C 593.568 561.688 591.821 569.6 594.184 577.433 C 596.718 585.833 603.282 592.467 610.929 596.478 C 621.447 601.987 633.724 603.087 645.054 599.535 C 653.966 596.668 661.369 590.684 665.524 582.241 C 668.753 575.681 669.867 568.305 667.308 561.326 C 664.684 554.17 659.74 549.046 653.962 544.311 z"/>
<path transform="translate(0,0)" fill="rgb(76,72,76)" d="M 1403.28 534.873 C 1409.92 533.698 1421.01 532.087 1427.03 535.859 C 1431.37 536.486 1436.67 537.288 1439.69 540.79 C 1439.75 540.857 1439.8 540.933 1439.85 541.005 C 1445.23 542.492 1450.66 547.965 1453.45 552.708 C 1454.65 554.736 1455.43 556.235 1455.01 558.596 C 1458.24 562.045 1459.06 566.03 1458.97 570.663 C 1458.77 579.756 1453.95 588.399 1447.37 594.456 C 1445.13 596.518 1442.79 598.271 1439.79 599.019 C 1440.86 598.018 1441.83 596.879 1442.83 595.802 L 1442.09 594.762 L 1438.01 594.975 C 1438.96 594.575 1439.75 594.171 1440.59 593.567 C 1447.15 588.837 1452.56 581.665 1453.8 573.51 C 1454.55 568.638 1453.97 563.906 1450.99 559.879 C 1451.04 559.152 1451.09 558.984 1450.87 558.18 C 1449.43 553.004 1444 548.912 1439.82 546.048 C 1435.98 542.273 1429.86 540.612 1424.86 539.079 C 1418.71 537.878 1412.81 537.978 1406.59 538.068 L 1406.07 536.121 L 1403.28 534.873 z"/>
<path transform="translate(0,0)" fill="rgb(68,69,81)" d="M 1020.86 547.048 C 1022.23 543.308 1021.85 539.53 1021.7 535.621 L 1023.9 535.588 L 1024.72 536.93 C 1024.24 539.305 1023.83 541.012 1024.87 543.288 C 1024.94 543.444 1025.03 543.594 1025.1 543.746 C 1027.52 589.604 1025.78 636.407 1025.33 682.339 C 1025.17 698.199 1026.85 726.396 1025 740.638 C 1026.68 799.126 1023.99 857.769 1025.74 916.256 L 1024.22 916.947 C 1024.92 919.231 1025.58 921.447 1026 923.806 C 1024.4 924.741 1022.77 923.973 1020.99 923.647 C 1020.14 921.478 1020.47 919.193 1020.09 916.944 C 1022.22 865.69 1020.58 813.871 1020.65 762.535 C 1020.68 745.607 1020.14 728.486 1021.01 711.581 C 1020.27 686.619 1020.74 661.533 1020.73 636.551 C 1020.71 606.732 1020.32 576.858 1020.86 547.048 z"/>
<path transform="translate(0,0)" fill="rgb(68,69,81)" d="M 1439.79 599.019 L 1439.27 600.068 C 1436.47 602.216 1433.36 603.382 1429.97 604.258 C 1416.49 607.737 1402.28 607.244 1390.05 600.041 C 1381.61 595.074 1375.01 587.197 1372.6 577.611 C 1370.45 569.01 1371.8 559.906 1376.35 552.299 C 1382.35 542.304 1392.38 537.66 1403.28 534.873 L 1406.07 536.121 L 1406.59 538.068 L 1405.65 538.542 C 1392.84 544.924 1382.62 546.207 1377.28 561.511 C 1374.99 568.046 1375.44 574.88 1378.45 581.103 C 1382.69 589.877 1391.24 596.162 1400.33 599.23 C 1411.85 603.123 1424.2 602.515 1435.07 597.014 C 1436.22 596.432 1437.08 595.867 1438.01 594.975 L 1442.09 594.762 L 1442.83 595.802 C 1441.83 596.879 1440.86 598.018 1439.79 599.019 z"/>
<path transform="translate(0,0)" fill="rgb(206,161,0)" d="M 623.548 538.028 C 635.211 537.653 643.332 539.126 653.962 544.311 C 659.74 549.046 664.684 554.17 667.308 561.326 C 669.867 568.305 668.753 575.681 665.524 582.241 C 661.369 590.684 653.966 596.668 645.054 599.535 C 633.724 603.087 621.447 601.987 610.929 596.478 C 603.282 592.467 596.718 585.833 594.184 577.433 C 591.821 569.6 593.568 561.688 597.495 554.677 C 602.968 544.908 613.327 540.907 623.548 538.028 z"/>
<path transform="translate(0,0)" fill="rgb(206,161,0)" d="M 1438.01 594.975 C 1437.08 595.867 1436.22 596.432 1435.07 597.014 C 1424.2 602.515 1411.85 603.123 1400.33 599.23 C 1391.24 596.162 1382.69 589.877 1378.45 581.103 C 1375.44 574.88 1374.99 568.046 1377.28 561.511 C 1382.62 546.207 1392.84 544.924 1405.65 538.542 L 1406.59 538.068 C 1412.81 537.978 1418.71 537.878 1424.86 539.079 C 1429.86 540.612 1435.98 542.273 1439.82 546.048 C 1444 548.912 1449.43 553.004 1450.87 558.18 C 1451.09 558.984 1451.04 559.152 1450.99 559.879 C 1453.97 563.906 1454.55 568.638 1453.8 573.51 C 1452.56 581.665 1447.15 588.837 1440.59 593.567 C 1439.75 594.171 1438.96 594.575 1438.01 594.975 z"/>
<path transform="translate(0,0)" fill="rgb(76,72,76)" d="M 1133.31 545.729 C 1147.52 557.868 1161.86 575.104 1163.53 594.407 C 1163.88 598.531 1164.2 602.387 1162.05 606.105 C 1182.4 606.098 1345.42 604.704 1350.11 606.905 C 1348.96 608.665 1348.31 609.199 1346.43 610.144 C 1325.76 610.088 1169.33 608.361 1163.55 610.77 C 1162.79 612.181 1161.97 613.588 1161.29 615.038 C 1183.77 632.883 1202.93 650.088 1206.24 680.52 C 1207.22 689.621 1206.65 706.578 1200.72 714.181 C 1200.17 714.889 1199.56 715.331 1198.84 715.846 C 1199.41 714.474 1199.64 713.767 1199.44 712.281 L 1195.78 712.91 C 1196.31 712.426 1196.81 711.923 1197.22 711.337 C 1202.71 703.643 1202.66 689.087 1201.63 680.147 C 1198.39 652.065 1179.63 635.3 1158.8 618.907 C 1158.16 613.264 1158.97 607.359 1158.98 601.676 C 1159 579.553 1146.97 565.488 1132.23 550.766 L 1133.31 545.729 z"/>
<path transform="translate(0,0)" fill="rgb(56,56,56)" d="M 1346.43 610.144 C 1348.31 609.199 1348.96 608.665 1350.11 606.905 C 1350.6 607.697 1351.47 608.749 1351.78 609.597 C 1353.77 615.121 1352.01 670.355 1351.97 680.972 C 1351.95 684.883 1351 692.544 1352.4 695.962 C 1352.9 697.178 1353.75 697.684 1354.87 698.11 L 1355.84 699.796 L 1354.68 700.64 C 1352.57 700.614 1350.12 700.795 1348.11 700.103 C 1346.92 699.692 1345.9 699.59 1344.64 699.518 L 1344.1 699.491 L 1348.59 698.642 C 1349.5 697.268 1349.67 696.352 1349.73 694.734 C 1349.9 690.38 1350.3 682.933 1347.34 679.763 C 1347.53 679.152 1347.69 678.576 1347.8 677.948 C 1349.31 669.771 1349.93 615.176 1346.43 610.144 z"/>
<path transform="translate(0,0)" fill="rgb(231,236,254)" d="M 698.098 610.058 C 758.713 609.866 819.783 611.697 880.328 609.761 C 882.662 611.281 882.679 611.401 883.531 614.065 C 882.256 621.107 869.014 627.951 863.997 633.145 C 839.116 658.903 830.379 695.905 849.501 727.888 L 844.704 736.869 L 738.339 736.858 C 737.292 725.394 733.896 715.596 724.738 708.077 C 716.76 701.526 707.853 699.645 698.091 697.544 C 698.273 668.382 698.275 639.22 698.098 610.058 z"/>
<path transform="translate(0,0)" fill="rgb(231,236,254)" d="M 1161.29 615.038 C 1161.97 613.588 1162.79 612.181 1163.55 610.77 C 1169.33 608.361 1325.76 610.088 1346.43 610.144 C 1349.93 615.176 1349.31 669.771 1347.8 677.948 C 1347.69 678.576 1347.53 679.152 1347.34 679.763 C 1349.46 685.113 1348.47 691.79 1347.47 697.305 C 1335.68 699.453 1323.83 704.224 1316.69 714.376 C 1311.85 721.26 1311.26 732.693 1307.27 737.28 L 1291.78 737.405 L 1198.21 737.235 C 1198.35 736.529 1198.47 736.152 1198.47 735.466 C 1198.44 732.073 1195.83 728.855 1193.71 726.447 C 1194.33 725.814 1194.91 725.173 1195.48 724.495 C 1197.5 722.063 1199.13 719.068 1198.84 715.846 C 1199.56 715.331 1200.17 714.889 1200.72 714.181 C 1206.65 706.578 1207.22 689.621 1206.24 680.52 C 1202.93 650.088 1183.77 632.883 1161.29 615.038 z"/>
<path transform="translate(0,0)" fill="rgb(76,72,76)" d="M 1347.34 679.763 C 1350.3 682.933 1349.9 690.38 1349.73 694.734 C 1349.67 696.352 1349.5 697.268 1348.59 698.642 L 1344.1 699.491 L 1344.64 699.518 C 1345.9 699.59 1346.92 699.692 1348.11 700.103 C 1350.12 700.795 1352.57 700.614 1354.68 700.64 L 1355.84 699.796 L 1354.87 698.11 C 1365.83 698.779 1375.51 704.518 1382.74 712.639 C 1387.62 718.114 1391.89 726.059 1391.43 733.627 C 1391.36 734.827 1391.01 736.052 1390.48 737.128 L 1497.03 737.393 C 1497.17 737.205 1497.3 737.02 1497.43 736.829 C 1500.19 732.711 1500.86 727.696 1502.89 723.202 C 1510.71 705.826 1526.07 696.855 1544.16 692.84 C 1562.39 688.798 1585.56 691.315 1601.54 701.541 C 1605.2 703.88 1610.77 707.634 1611.82 711.971 C 1616.59 714.045 1619.84 719.512 1621.73 724.177 C 1625.69 733.911 1625.03 745.892 1620.93 755.462 C 1618.2 761.869 1611.86 771.325 1604.96 773.725 C 1604.62 773.846 1604.26 773.944 1603.91 774.054 C 1601.44 778.825 1593.03 782.171 1588.04 783.709 C 1568.08 789.642 1546.67 788.356 1527.57 780.077 L 1527.45 777.793 L 1530.5 776.982 C 1545.32 780.323 1556.59 784.281 1572.3 782.284 C 1583.56 780.851 1598.4 776.359 1605.65 766.932 C 1608.07 765.411 1610.14 763.243 1611.94 761.039 C 1617.87 753.81 1620.69 744.525 1619.78 735.221 C 1618.93 727.211 1615.33 719.969 1609.07 714.86 C 1604.3 706.358 1591.26 701.136 1582.32 698.626 C 1564.22 693.54 1544.03 694.717 1527.47 704.077 C 1517.79 709.553 1508.49 718.092 1505.42 729.128 C 1503.52 735.949 1505.69 743.857 1503.66 749.953 L 1504.14 752.81 L 1500.87 753.865 C 1500.91 749.874 1499.85 744.133 1497.29 741.005 L 1390.96 740.957 C 1391.81 746.991 1388.52 755.05 1384.86 759.821 C 1377.81 769.02 1366.12 774.99 1354.73 776.364 C 1353.49 776.511 1352.25 776.637 1351 776.743 C 1352.85 783.928 1353.49 857.31 1350.59 862.626 C 1350.5 862.806 1350.38 862.977 1350.28 863.152 L 1162.98 863.152 C 1164.44 869.018 1159.75 877.582 1156.82 882.455 C 1150.78 892.5 1142.37 902.393 1133.37 909.882 C 1117.65 925.598 1080.99 949.178 1058.09 949.339 C 1048.49 949.407 1040.28 946.986 1033.37 940.158 C 1031.69 938.498 1029.54 936.277 1028.56 934.111 C 1029.43 932.871 1030.05 931.238 1030.72 929.868 C 1037.48 938.093 1043.2 943.502 1054.18 944.523 C 1080.02 946.926 1113 920.799 1131.65 905.208 C 1143.58 895.004 1156.96 878.02 1159.61 862.327 C 1160.86 854.946 1159.48 846.905 1155.07 840.778 C 1158.61 839.043 1161.84 836.703 1164.94 834.283 C 1172.87 828.091 1187.41 815.389 1188.69 805.18 L 1190.06 808.511 C 1190.54 808.438 1191.31 808.434 1191.71 808.156 L 1191.72 810.461 C 1185.24 823.645 1173.34 834.691 1161.38 842.943 C 1161.75 843.362 1161.9 843.482 1162.18 844.058 C 1164.13 848.199 1164.96 854.891 1163.1 859.107 L 1346.61 859.161 C 1346.86 858.78 1346.99 858.601 1347.22 858.167 C 1349.26 854.26 1349.46 782.672 1347.64 776.63 C 1334.81 774.954 1319.22 768.405 1314.12 755.429 C 1312.34 750.879 1311.79 745.837 1308.54 742.02 C 1305.31 740.317 1300.43 740.834 1296.8 740.8 C 1292.65 739.354 1286.01 740.217 1281.5 740.246 C 1268.2 740.332 1228.57 742.448 1217.61 739.458 L 1217.07 738.281 C 1229.88 737.562 1284.02 740.134 1290.8 737.777 C 1291.13 737.662 1291.45 737.529 1291.78 737.405 L 1307.27 737.28 C 1311.26 732.693 1311.85 721.26 1316.69 714.376 C 1323.83 704.224 1335.68 699.453 1347.47 697.305 C 1348.47 691.79 1349.46 685.113 1347.34 679.763 z M 1342.18 702.029 C 1322.59 706.705 1310.56 726.465 1315.42 746.018 C 1320.28 765.571 1340.15 777.41 1359.66 772.372 C 1378.91 767.4 1390.56 747.844 1385.77 728.545 C 1380.97 709.247 1361.52 697.415 1342.18 702.029 z"/>
<path transform="translate(0,0)" fill="rgb(61,97,254)" d="M 1503.66 749.953 C 1505.69 743.857 1503.52 735.949 1505.42 729.128 C 1508.49 718.092 1517.79 709.553 1527.47 704.077 C 1544.03 694.717 1564.22 693.54 1582.32 698.626 C 1591.26 701.136 1604.3 706.358 1609.07 714.86 C 1615.33 719.969 1618.93 727.211 1619.78 735.221 C 1620.69 744.525 1617.87 753.81 1611.94 761.039 C 1610.14 763.243 1608.07 765.411 1605.65 766.932 C 1598.4 776.359 1583.56 780.851 1572.3 782.284 C 1556.59 784.281 1545.32 780.323 1530.5 776.982 C 1528.83 773.429 1518.14 768.611 1514.69 765.199 C 1510.21 760.766 1508.65 753.984 1503.66 749.953 z"/>
<path transform="translate(0,0)" fill="rgb(61,97,254)" d="M 434.653 719.072 C 447.661 705.053 464.265 696.736 483.628 696.108 C 499.686 695.586 517.386 701.045 529.183 712.228 C 536.523 719.186 541.439 728.62 541.602 738.85 C 541.765 749.135 537.341 758.663 530.098 765.839 C 518.059 777.766 499.818 783.587 483.11 783.251 C 470.225 783.053 457.671 779.137 446.957 771.973 C 439.245 766.194 432.337 758.472 429.534 749.084 C 426.254 738.102 429.348 728.709 434.653 719.072 z"/>
<path transform="translate(0,0)" fill="rgb(231,236,254)" d="M 700.786 770.789 C 691.885 771.501 682.633 769.605 675.01 764.857 C 667.302 760.055 661.48 752.512 659.564 743.558 C 657.755 734.891 659.554 725.861 664.547 718.549 C 671.077 708.866 680.766 704.443 691.885 702.218 C 700.767 701.648 709.782 703.451 717.383 708.188 C 725.225 713.076 731.051 720.82 732.972 729.914 C 734.801 738.485 733.059 747.433 728.147 754.691 C 721.662 764.285 711.831 768.703 700.786 770.789 z"/>
<path transform="translate(0,0)" fill="rgb(231,236,254)" d="M 1359.66 772.372 C 1340.15 777.41 1320.28 765.571 1315.42 746.018 C 1310.56 726.465 1322.59 706.705 1342.18 702.029 C 1361.52 697.415 1380.97 709.247 1385.77 728.545 C 1390.56 747.844 1378.91 767.4 1359.66 772.372 z"/>
<path transform="translate(0,0)" fill="rgb(56,56,56)" d="M 1195.78 712.91 L 1199.44 712.281 C 1199.64 713.767 1199.41 714.474 1198.84 715.846 C 1199.13 719.068 1197.5 722.063 1195.48 724.495 C 1194.91 725.173 1194.33 725.814 1193.71 726.447 C 1195.83 728.855 1198.44 732.073 1198.47 735.466 C 1198.47 736.152 1198.35 736.529 1198.21 737.235 L 1291.78 737.405 C 1291.45 737.529 1291.13 737.662 1290.8 737.777 C 1284.02 740.134 1229.88 737.562 1217.07 738.281 L 1217.61 739.458 C 1228.57 742.448 1268.2 740.332 1281.5 740.246 C 1286.01 740.217 1292.65 739.354 1296.8 740.8 C 1264.19 741.092 1231.57 741.154 1198.95 740.985 C 1204.84 747.86 1204.47 764.226 1203.8 773.096 C 1203.08 782.609 1200.21 801.295 1192.81 807.387 C 1192.35 807.768 1192.17 807.863 1191.71 808.156 C 1191.31 808.434 1190.54 808.438 1190.06 808.511 L 1188.69 805.18 C 1197.03 795.907 1199.41 777.553 1199.3 765.285 C 1199.21 754.006 1196.95 734.259 1188.69 726.104 C 1191.66 722.572 1195.75 717.733 1195.78 712.91 z"/>
<path transform="translate(0,0)" fill="rgb(56,56,56)" d="M 654.744 731.324 C 655.722 729.993 656.562 728.856 657.106 727.27 L 656.396 728.405 L 657.938 726.737 C 658.285 730.109 657.995 736.377 656.632 739.429 C 657.216 741.575 658.606 744.243 657.513 746.198 C 657.424 745.929 657.337 745.659 657.244 745.39 C 656.405 742.964 655.717 741.492 653.776 739.703 C 648.248 738.598 641.313 739.6 635.608 739.625 L 576.763 739.766 C 568.447 739.774 558.43 740.752 550.296 739.362 C 548.603 739.073 548.186 738.582 546.966 737.455 C 562.642 735.21 648.786 739.613 653.963 735.979 L 654.744 731.324 z"/>
<path transform="translate(0,0)" fill="rgb(231,236,254)" d="M 843.404 740.367 C 839.013 752.707 837.726 765.938 839.657 778.893 C 842.965 800.815 856.043 820.95 873.766 834.058 C 876.914 836.882 880.199 839.413 883.6 841.925 C 882.844 847.521 882.082 853.106 881.558 858.73 C 858.901 857.843 836.035 858.3 813.352 858.28 L 698.095 858.486 L 698.152 775.269 C 705.595 774.411 712.94 772.553 719.441 768.722 C 730.466 762.227 735.312 752.337 738.283 740.371 C 773.313 740.728 808.372 740.434 843.404 740.367 z"/>
<path transform="translate(0,0)" fill="rgb(231,236,254)" d="M 1198.95 740.985 C 1231.57 741.154 1264.19 741.092 1296.8 740.8 C 1300.43 740.834 1305.31 740.317 1308.54 742.02 C 1311.79 745.837 1312.34 750.879 1314.12 755.429 C 1319.22 768.405 1334.81 774.954 1347.64 776.63 C 1349.46 782.672 1349.26 854.26 1347.22 858.167 C 1346.99 858.601 1346.86 858.78 1346.61 859.161 L 1163.1 859.107 C 1164.96 854.891 1164.13 848.199 1162.18 844.058 C 1161.9 843.482 1161.75 843.362 1161.38 842.943 C 1173.34 834.691 1185.24 823.645 1191.72 810.461 L 1191.71 808.156 C 1192.17 807.863 1192.35 807.768 1192.81 807.387 C 1200.21 801.295 1203.08 782.609 1203.8 773.096 C 1204.47 764.226 1204.84 747.86 1198.95 740.985 z"/>
<path transform="translate(0,0)" fill="rgb(76,72,76)" d="M 1503.66 749.953 C 1508.65 753.984 1510.21 760.766 1514.69 765.199 C 1518.14 768.611 1528.83 773.429 1530.5 776.982 L 1527.45 777.793 L 1527.57 780.077 C 1515.27 773.027 1508.63 765.467 1500.87 753.865 L 1504.14 752.81 L 1503.66 749.953 z"/>
<path transform="translate(0,0)" fill="rgb(56,56,56)" d="M 862.431 816.374 C 870.673 825.277 879.727 833.063 889.283 840.516 C 885.579 854.399 886.138 866.294 893.378 878.998 C 907.626 903.998 949.547 935.855 977.033 943.013 C 986.239 945.41 995.995 944.938 1004.3 939.979 C 1012.78 934.916 1017.75 926.325 1020.09 916.944 C 1020.47 919.193 1020.14 921.478 1020.99 923.647 C 1022.77 923.973 1024.4 924.741 1026 923.806 C 1025.58 921.447 1024.92 919.231 1024.22 916.947 L 1025.74 916.256 C 1027.07 921.046 1028.52 925.404 1030.72 929.868 C 1030.05 931.238 1029.43 932.871 1028.56 934.111 C 1026.4 931.162 1024.7 927.625 1022.89 924.434 C 1022.04 926.323 1021.16 928.199 1020.14 930 C 1015.14 938.805 1007.24 945.504 997.337 948.04 C 980.138 952.442 962.568 943.651 948.145 935.052 C 919.531 917.994 890.766 895.885 882.19 862.231 L 881.558 858.73 C 882.082 853.106 882.844 847.521 883.6 841.925 C 880.199 839.413 876.914 836.882 873.766 834.058 L 875.045 832.897 C 873.791 826.391 863.605 823.596 862.431 816.374 z"/>
<path transform="translate(0,0)" fill="rgb(68,69,81)" d="M 596.842 876.236 C 604.829 867.326 615.767 862.943 627.587 862.238 C 640.503 861.467 653.668 865.69 663.347 874.385 C 670.107 880.459 674.842 888.662 675.281 897.87 C 675.711 906.909 672.323 914.709 667.031 921.836 L 665.937 915.169 C 668.144 911.256 669.751 907.031 670.221 902.546 C 671.047 894.675 668.647 887.146 663.618 881.051 C 656.673 872.632 645.77 867.706 635.035 866.661 C 620.893 865.285 610.606 870.503 599.926 879.15 C 594.554 886.665 590.69 893.88 592.18 903.403 C 593.067 909.073 595.783 914.104 598.861 918.875 L 597.759 920.074 C 595.51 919.751 594.085 918.363 592.357 916.991 C 589.056 913.971 587.222 906.786 586.948 902.484 C 586.318 892.588 590.445 883.515 596.842 876.236 z"/>
<path transform="translate(0,0)" fill="rgb(68,69,81)" d="M 1451.55 883.131 C 1450.53 885.556 1451.66 887.558 1450.62 889.975 C 1450.55 886.018 1447.09 882.377 1444.39 879.787 C 1436.06 871.882 1424.93 867.613 1413.46 867.922 C 1402.59 868.205 1391.55 872.681 1384.08 880.675 C 1378.84 886.283 1375.48 893.677 1375.87 901.449 C 1376.29 909.967 1381.13 917.21 1387.35 922.741 C 1395.85 930.297 1407.47 933.402 1418.68 932.666 C 1424.89 932.259 1434.77 929.929 1439.05 925.043 C 1439.17 926.788 1439.59 928.413 1438.86 930.021 L 1438.29 931.068 C 1433.69 934.349 1428.03 935.764 1422.49 936.463 C 1409.47 938.107 1396.09 935.68 1385.64 927.395 C 1378.17 921.474 1372.88 912.722 1371.91 903.169 C 1371 894.315 1373.94 885.812 1379.6 879.018 C 1385.99 871.345 1398.71 864.177 1408.89 863.456 C 1421.34 862.574 1437.29 866.803 1446.62 875.378 C 1448.92 877.49 1451.39 879.879 1451.55 883.131 z"/>
<path transform="translate(0,0)" fill="rgb(206,161,0)" d="M 599.926 879.15 C 610.606 870.503 620.893 865.285 635.035 866.661 C 645.77 867.706 656.673 872.632 663.618 881.051 C 668.647 887.146 671.047 894.675 670.221 902.546 C 669.751 907.031 668.144 911.256 665.937 915.169 C 658.183 924.474 649.043 931.434 636.633 932.682 C 625.681 933.784 612.666 930.251 604.108 923.219 C 602.339 921.765 600.767 920.157 598.861 918.875 C 595.783 914.104 593.067 909.073 592.18 903.403 C 590.69 893.88 594.554 886.665 599.926 879.15 z"/>
<path transform="translate(0,0)" fill="rgb(206,161,0)" d="M 1439.05 925.043 C 1434.77 929.929 1424.89 932.259 1418.68 932.666 C 1407.47 933.402 1395.85 930.297 1387.35 922.741 C 1381.13 917.21 1376.29 909.967 1375.87 901.449 C 1375.48 893.677 1378.84 886.283 1384.08 880.675 C 1391.55 872.681 1402.59 868.205 1413.46 867.922 C 1424.93 867.613 1436.06 871.882 1444.39 879.787 C 1447.09 882.377 1450.55 886.018 1450.62 889.975 C 1453.61 894.238 1454.07 899.201 1453.2 904.259 C 1451.93 911.623 1447.39 919.401 1441.2 923.677 C 1440.51 924.165 1439.79 924.621 1439.05 925.043 z"/>
<path transform="translate(0,0)" fill="rgb(76,72,76)" d="M 1450.62 889.975 C 1451.66 887.558 1450.53 885.556 1451.55 883.131 C 1455.7 886.351 1457.29 891.122 1457.94 896.201 C 1459.03 904.794 1455.94 914.15 1450.7 920.942 C 1447.79 924.702 1443.57 928.853 1438.86 930.021 C 1439.59 928.413 1439.17 926.788 1439.05 925.043 C 1439.79 924.621 1440.51 924.165 1441.2 923.677 C 1447.39 919.401 1451.93 911.623 1453.2 904.259 C 1454.07 899.201 1453.61 894.238 1450.62 889.975 z"/>
<path transform="translate(0,0)" fill="rgb(76,72,76)" d="M 598.861 918.875 C 600.767 920.157 602.339 921.765 604.108 923.219 C 612.666 930.251 625.681 933.784 636.633 932.682 C 649.043 931.434 658.183 924.474 665.937 915.169 L 667.031 921.836 C 663.77 925.177 660.416 928.29 656.371 930.672 C 644.63 937.585 630.181 938.881 617.127 935.355 C 606.656 932.526 597.789 926.475 592.357 916.991 C 594.085 918.363 595.51 919.751 597.759 920.074 L 598.861 918.875 z"/>
<path transform="translate(0,0)" fill="rgb(231,236,254)" d="M 293.572 1065.64 C 263.714 1069.54 236.308 1048.61 232.209 1018.77 C 228.11 988.943 248.855 961.396 278.657 957.095 C 308.747 952.752 336.618 973.741 340.757 1003.86 C 344.895 1033.98 323.718 1061.71 293.572 1065.64 z"/>
</svg>